<svg version="1.0" xmlns="http://www.w3.org/2000/svg"
                            width="120" height="64" viewBox="0 0 709.000000 236.000000"
                            preserveAspectRatio="xMidYMid meet">
                            <metadata>
                            Created by potrace 1.16, written by Peter Selinger 2001-2019
                            </metadata>
                            <g transform="translate(0.000000,236.000000) scale(0.100000,-0.100000)"
                            fill="#ffffff" stroke="none">
                            <path d="M90 2051 c0 -16 9 -21 48 -26 72 -11 128 -39 146 -74 23 -44 24
                            -1206 1 -1250 -18 -35 -82 -67 -152 -76 -43 -6 -53 -10 -53 -26 0 -18 11 -19
                            270 -19 259 0 270 1 270 19 0 16 -10 20 -52 26 -74 9 -132 39 -152 78 -15 29
                            -17 80 -14 565 l3 534 280 -611 c189 -411 285 -611 295 -611 10 0 50 77 117
                            228 57 125 186 412 288 637 l185 410 0 -574 0 -573 -33 -33 c-25 -25 -48 -36
                            -95 -45 -50 -10 -62 -16 -62 -31 0 -18 14 -19 310 -19 296 0 310 1 310 19 0
                            14 -10 20 -42 25 -75 12 -127 41 -143 80 -22 53 -22 1189 0 1242 16 38 67 67
                            143 79 32 5 42 11 42 26 0 19 -8 19 -226 17 l-225 -3 -247 -564 c-193 -441
                            -248 -560 -256 -548 -6 9 -123 263 -261 564 l-251 548 -222 3 c-215 2 -222 2
                            -222 -17z"/>
                            <path d="M2090 2051 c0 -15 10 -21 43 -26 23 -4 61 -16 84 -26 76 -36 73 -12
                            73 -674 0 -662 3 -638 -73 -674 -23 -10 -61 -22 -84 -26 -33 -5 -43 -11 -43
                            -26 0 -18 11 -19 315 -19 302 0 315 1 315 19 0 15 -10 20 -47 26 -66 10 -106
                            28 -131 60 -21 27 -22 35 -22 316 l0 289 33 0 c29 -1 58 -28 297 -276 146
                            -152 273 -288 283 -304 31 -50 0 -76 -104 -87 -49 -5 -59 -9 -59 -24 0 -18 15
                            -19 325 -19 317 0 325 0 325 20 0 13 -9 22 -27 26 -60 13 -70 17 -116 47 -27
                            18 -196 189 -383 390 l-335 358 100 107 c135 145 291 297 377 369 89 73 161
                            110 242 124 50 9 62 15 62 30 0 18 -12 19 -290 19 -279 0 -290 -1 -290 -19 0
                            -15 10 -21 43 -26 90 -15 116 -45 90 -106 -15 -37 -539 -569 -560 -569 -10 0
                            -13 62 -13 294 0 277 1 295 20 318 22 29 74 52 138 63 32 5 42 11 42 26 0 18
                            -11 19 -315 19 -304 0 -315 -1 -315 -19z"/>
                            <path d="M3905 1169 c-33 -6 -111 -8 -172 -5 -62 2 -113 2 -113 0 0 -2 20 -14
                            45 -25 76 -36 76 -35 73 -393 l-3 -314 -24 -26 c-13 -14 -39 -30 -57 -36 -62
                            -21 -35 -28 94 -27 70 1 201 0 292 -3 157 -5 168 -4 215 18 63 29 93 57 116
                            107 35 77 19 177 -39 239 -31 33 -116 76 -152 76 -20 1 -16 5 23 24 66 33 105
                            72 118 120 25 93 -15 177 -105 221 -46 22 -71 27 -153 30 -54 2 -125 -1 -158
                            -6z m185 -34 c60 -31 90 -87 90 -168 0 -70 -31 -123 -89 -154 -36 -19 -60 -23
                            -128 -23 l-84 0 3 149 c3 143 4 151 27 175 42 45 117 53 181 21z m-230 -15
                            l-30 -25 0 -342 c0 -332 1 -343 20 -353 35 -19 22 -25 -55 -25 -77 0 -90 6
                            -55 25 19 10 20 21 20 355 l0 344 -25 19 c-14 11 -25 21 -25 23 0 2 41 4 90 4
                            l91 0 -31 -25z m303 14 c71 -36 107 -88 107 -154 0 -57 -26 -107 -73 -141 -53
                            -38 -80 -39 -45 -1 36 36 48 72 48 138 0 59 -17 103 -58 147 -29 31 -24 34 21
                            11z m-24 -389 c19 -11 48 -37 65 -58 27 -34 31 -48 34 -111 6 -106 -28 -166
                            -111 -201 -47 -20 -140 -19 -182 1 -56 26 -65 60 -65 239 l0 157 113 -3 c89
                            -3 119 -8 146 -24z m102 -27 c66 -51 83 -80 87 -151 2 -47 -1 -70 -16 -97 -22
                            -40 -82 -86 -127 -96 l-29 -7 38 34 c49 43 66 83 66 159 0 69 -19 122 -57 163
                            -36 37 -14 34 38 -5z"/>
                            <path d="M6372 1049 c-13 -94 -67 -179 -128 -201 -40 -14 -44 -28 -9 -28 l25
                            0 0 -171 c0 -93 5 -190 11 -215 27 -107 147 -133 249 -55 35 28 19 36 -21 12
                            -46 -28 -75 -27 -96 5 -14 22 -18 59 -21 225 l-5 199 86 0 c105 0 89 18 226
                            -264 l101 -209 -25 -54 c-29 -65 -54 -68 -70 -11 -14 49 -28 62 -60 54 -62
                            -16 -50 -129 16 -156 38 -16 73 -6 94 27 10 15 67 146 127 292 115 282 129
                            311 159 318 43 12 14 23 -56 23 -72 0 -105 -15 -48 -22 18 -2 29 -10 32 -23 3
                            -19 -99 -285 -110 -285 -3 0 -34 61 -68 135 -52 111 -60 138 -51 155 6 11 20
                            20 30 20 11 0 20 5 20 10 0 6 -73 10 -200 10 l-199 0 -4 113 c-1 61 -4 105 -5
                            96z m-12 -664 c8 -9 23 -21 35 -25 18 -8 18 -9 -6 -9 -15 -1 -39 9 -54 21 -49
                            38 -55 70 -55 280 l0 192 28 22 27 22 5 -242 c4 -193 8 -247 20 -261z m320
                            415 c-12 -23 9 -79 97 -254 54 -107 54 -109 39 -145 l-14 -36 -102 210 c-56
                            116 -109 218 -117 228 -15 16 -12 17 46 17 58 0 61 -1 51 -20z"/>
                            <path d="M4614 840 c-18 -6 -53 -25 -80 -42 -120 -81 -146 -276 -51 -384 50
                            -58 100 -78 192 -78 87 0 132 17 207 77 53 43 37 53 -20 13 -59 -43 -114 -58
                            -166 -46 -77 17 -136 108 -136 207 l0 43 180 0 180 0 0 25 c0 63 -48 133 -113
                            166 -44 23 -148 33 -193 19z m131 -32 c33 -26 55 -75 55 -123 l0 -35 -120 0
                            -120 0 0 33 c0 44 39 119 70 134 38 19 84 15 115 -9z m-187 -25 c-38 -44 -52
                            -88 -53 -168 0 -131 48 -217 141 -250 32 -12 34 -14 14 -15 -90 -1 -188 77
                            -210 169 -22 93 0 172 68 244 35 36 70 54 40 20z"/>
                            <path d="M5145 835 c-79 -28 -115 -112 -59 -137 37 -17 57 -1 71 58 20 76 70
                            98 118 49 19 -18 25 -36 27 -75 1 -27 2 -58 2 -67 1 -15 -11 -19 -62 -25 -87
                            -10 -157 -34 -198 -70 -87 -76 -58 -201 53 -226 51 -12 110 -2 158 26 46 28
                            55 28 55 -3 0 -25 0 -25 95 -25 57 0 95 4 95 10 0 6 -6 10 -13 10 -7 0 -23 9
                            -35 20 -21 20 -22 30 -22 163 0 157 -8 202 -46 247 -45 52 -157 74 -239 45z
                            m184 -31 c42 -35 51 -77 51 -248 0 -125 3 -152 17 -168 15 -17 14 -18 -30 -18
                            l-46 0 -3 209 c-3 189 -5 211 -22 230 -27 29 -4 26 33 -5z m-21 -281 l-3 -97
                            -34 -23 c-118 -79 -217 61 -113 160 33 31 87 56 125 57 l28 0 -3 -97z"/>
                            <path d="M5613 838 c-46 -6 -83 -14 -83 -19 0 -5 6 -9 13 -9 8 0 22 -9 33 -21
                            17 -18 20 -42 24 -188 6 -189 13 -212 78 -249 46 -26 116 -29 167 -8 19 8 55
                            35 80 60 l45 45 0 -54 0 -55 95 0 c96 0 115 8 70 28 -14 7 -30 23 -35 38 -6
                            14 -10 120 -10 235 l0 211 -27 -6 c-16 -3 -58 -8 -95 -12 -38 -3 -68 -10 -68
                            -14 0 -14 40 -19 73 -9 17 5 42 9 54 9 l23 0 0 -213 c0 -152 3 -216 12 -225 9
                            -9 3 -12 -30 -12 l-42 0 0 205 c0 194 -1 205 -20 215 -18 10 -19 9 -10 -15 6
                            -15 10 -85 10 -157 0 -117 -2 -133 -21 -160 -34 -47 -97 -88 -136 -88 -84 0
                            -93 27 -93 281 0 153 -3 199 -12 198 -7 -1 -50 -6 -95 -11z m57 -180 c1 -212
                            8 -253 49 -290 38 -34 17 -37 -29 -5 -65 43 -74 72 -78 257 -3 127 -7 169 -19
                            182 -13 15 -12 17 9 21 13 2 33 5 46 6 l22 1 0 -172z"/>
                            </g>
                        </svg>